<svg width="162" height="31" viewBox="0 0 162 31" fill="none" xmlns="http://www.w3.org/2000/svg">
<path d="M19.2314 30.006L16.4794 30.0052C15.744 27.9889 14.7848 25.4606 13.6018 22.4523L5.02575 22.4496L1.88738 30.0006L0.959383 30.0003L9.99024 8.14713L10.2782 8.14722C10.5659 9.10731 10.8537 9.8754 11.0775 10.4195C12.1647 13.1398 13.5396 16.4362 15.1704 20.3728C16.8012 24.3093 18.1762 27.5417 19.2314 30.006ZM5.37804 21.5217L13.218 21.5241L9.34906 11.9229L9.34918 11.5389L5.37804 21.5217ZM45.3069 30.0142L42.9069 30.0135L41.1527 11.3569L41.1849 10.9729L33.3707 30.4905L33.1147 30.4904L25.3767 11.384L25.2489 10.7439L23.0029 30.0072L22.1069 29.9749L24.5132 9.97569L24.4496 8.47167L26.7856 8.4724L27.617 10.6487C28.0966 11.8648 28.6082 13.177 29.1517 14.5531C29.6953 15.9293 30.2709 17.3375 30.8464 18.7457C31.422 20.1859 32.0615 21.6901 32.733 23.2903C33.4045 24.8905 33.8202 25.8506 33.9481 26.2027L33.9799 26.7467L41.3136 8.47696L43.1376 8.47753C44.2859 20.4779 45.0196 27.6461 45.3069 30.0142ZM66.4501 30.0209L63.6981 30.02C62.9628 28.0038 62.0036 25.4755 60.8205 22.4671L52.2445 22.4644L49.1061 30.0154L48.1781 30.0151L57.209 8.16195L57.497 8.16204C57.7847 9.12213 58.0724 9.89022 58.2963 10.4343C59.3834 13.1546 60.7584 16.4511 62.3892 20.3876C64.0199 24.3241 65.3949 27.5565 66.4501 30.0209ZM52.5968 21.5365L60.4368 21.539L56.5678 11.9378L56.5679 11.5537L52.5968 21.5365ZM86.0096 30.027L67.5456 30.0212C68.1218 29.3494 69.2103 28.0377 70.7789 26.0862C72.3475 24.1347 74.7164 21.0954 77.8217 16.9044C80.9271 12.7134 82.7838 10.218 83.4241 9.41818L70.3681 9.47808L70.7204 8.48619L86.7524 8.49122C86.0801 9.32301 83.5511 12.6502 79.2292 18.5049C74.8754 24.3595 72.1543 27.9426 71.0339 29.1903C71.0659 29.1903 71.1299 29.1903 71.2259 29.1904C71.3219 29.2224 71.8019 29.2225 72.6019 29.1908C73.4019 29.191 75.8659 29.1598 80.0579 29.0651C84.25 28.9704 86.362 28.9391 86.394 28.9391L86.0096 30.027ZM105.318 6.03305L104.742 6.03287L100.903 2.44766L97.0622 6.03046L96.4542 6.03027L100.104 0.911412L101.672 0.911904L105.318 6.03305ZM112.098 19.4112C112.097 21.0752 111.809 22.5791 111.233 23.9549C110.656 25.3307 109.856 26.5145 108.831 27.4422C107.807 28.3698 106.623 29.1055 105.247 29.585C103.871 30.0646 102.367 30.3201 100.799 30.3196C99.2305 30.3191 97.7266 30.0947 96.3188 29.6142C94.9109 29.1338 93.6951 28.4614 92.6394 27.5331C91.5837 26.6047 90.7841 25.4845 90.2085 24.1403C89.6009 22.7961 89.3134 21.292 89.3139 19.596C89.3144 18.092 89.6028 16.6521 90.1473 15.2763C90.6917 13.9005 91.4601 12.6847 92.4844 11.629C93.5087 10.5733 94.725 9.77372 96.1652 9.16618C97.5734 8.55862 99.1095 8.2711 100.773 8.27162C102.405 8.27214 103.941 8.56062 105.381 9.13707C106.789 9.74551 108.005 10.5459 108.996 11.5702C109.988 12.5945 110.756 13.7788 111.299 15.1229C111.843 16.4991 112.098 17.9072 112.098 19.4112ZM100.735 29.4236C101.311 29.4238 101.983 29.328 102.719 29.1682C103.455 29.0085 104.191 28.7207 104.927 28.2409C105.663 27.7932 106.4 27.1534 107.072 26.3536C107.744 25.5538 108.288 24.562 108.737 23.3141C109.153 22.0663 109.378 20.7863 109.378 19.4103C109.378 18.1623 109.219 16.9143 108.867 15.6982C108.515 14.5141 108.004 13.4259 107.3 12.4337C106.564 11.4734 105.669 10.7052 104.549 10.1288C103.429 9.55246 102.181 9.26406 100.741 9.26361C99.3011 9.26316 98.0531 9.55077 96.9329 10.1584C95.8127 10.7661 94.9164 11.5338 94.1801 12.5256C93.4438 13.5173 92.9315 14.6372 92.5791 15.8851C92.2267 17.1329 92.0343 18.3489 92.0339 19.5969C92.0336 20.6209 92.1932 21.6769 92.4809 22.797C92.7685 23.9171 93.2482 24.8773 93.856 25.7415C94.4637 26.6056 95.1355 27.2779 95.8393 27.7901C96.5112 28.3023 97.279 28.6865 98.143 28.9748C98.9749 29.2631 99.8388 29.4233 100.735 29.4236ZM131.392 25.7212L131.616 26.2653C131.619 16.6333 131.588 10.7133 131.557 8.50528L132.581 8.5056C132.581 8.7936 132.581 9.30561 132.581 10.0416C132.58 10.8096 132.58 13.6576 132.546 18.6176C132.512 23.5776 132.511 27.5136 132.606 30.4256C131.103 28.7611 125.761 22.3915 116.612 11.3486L116.836 12.0527L116.83 30.0367L115.806 30.0363L115.813 10.1323L115.621 8.50028L116.997 8.50071C117.861 9.68498 122.659 15.4465 131.392 25.7212ZM140.155 30.044L137.723 30.0432C137.723 30.0112 137.723 29.8832 137.723 29.7232C137.723 29.5632 137.724 26.3312 137.758 20.0912C137.792 13.8512 137.793 10.0112 137.762 8.50723L140.13 8.50797L140.155 30.044ZM161.638 30.0507L158.886 30.0499C158.15 28.0336 157.191 25.5053 156.008 22.497L147.432 22.4943L144.294 30.0453L143.366 30.045L152.396 8.19182L152.684 8.19191C152.972 9.152 153.26 9.9201 153.484 10.4642C154.571 13.1845 155.946 16.4809 157.577 20.4174C159.207 24.354 160.582 27.5864 161.638 30.0507ZM147.784 21.5664L155.624 21.5688L151.755 11.9676L151.755 11.5836L147.784 21.5664Z" fill="#1A1A1A"/>
</svg>
