<svg
              width="98"
              height="23"
              viewBox="0 0 98 23"
              fill="none"
              xmlns="http://www.w3.org/2000/svg"
            >
              <path
                d="M12.912 22H0.56V0.463999H11.376L11.76 1.488C10.768 1.36 7.824 1.296 2.928 1.328V10.672C6.864 10.672 9.36 10.608 10.416 10.48V11.664C8.656 11.504 6.128 11.472 2.896 11.536L2.928 21.104C8.784 21.168 12.24 21.104 13.296 20.912L12.912 22ZM23.3613 22.32H23.0733L22.2093 20.048L14.2413 0.463999H16.8653C17.4413 2.064 18.3693 4.496 19.6813 7.76C20.9613 11.056 22.4013 14.64 24.0013 18.512V18.896L31.4893 0.463999H32.3853L23.3613 22.32ZM43.4238 22.32H43.1358L42.2718 20.048L34.3038 0.463999H36.9278C37.5038 2.064 38.4318 4.496 39.7438 7.76C41.0238 11.056 42.4638 14.64 44.0638 18.512V18.896L51.5518 0.463999H52.4478L43.4238 22.32ZM58.7183 22H56.2863C56.2863 21.968 56.2863 21.84 56.2863 21.68C56.2863 21.52 56.2863 18.288 56.3183 12.048C56.3503 5.808 56.3503 1.968 56.3183 0.463999H58.6863L58.7183 22ZM71.6738 22.32H71.3858L70.5218 20.048L62.5538 0.463999H65.1778C65.7538 2.064 66.6818 4.496 67.9938 7.76C69.2738 11.056 70.7138 14.64 72.3138 18.512V18.896L79.8018 0.463999H80.6978L71.6738 22.32ZM97.7008 22H94.9488C94.2128 19.984 93.2528 17.456 92.0688 14.448H83.4928L80.3568 22H79.4288L88.4528 0.143999H88.7408C89.0288 1.104 89.3168 1.872 89.5408 2.416C90.6288 5.136 92.0048 8.432 93.6368 12.368C95.2688 16.304 96.6448 19.536 97.7008 22ZM83.8448 13.52H91.6848L87.8128 3.92V3.536L83.8448 13.52Z"
                fill="#FEFEFE"
              />
            </svg>