<svg width="170" height="30" viewBox="0 0 170 30" fill="none" xmlns="http://www.w3.org/2000/svg">
<path d="M25.8076 29.0078L23.4076 29.007L21.6534 10.3505L21.6855 9.96649L13.8714 29.484L13.6154 29.484L5.8774 10.3775L5.7496 9.73749L3.50355 29.0008L2.60756 28.9685L5.01384 8.96926L4.95031 7.46524L7.28631 7.46598L8.11763 9.64224C8.59725 10.8584 9.10884 12.1705 9.6524 13.5467C10.196 14.9229 10.7715 16.3311 11.3471 17.7393C11.9226 19.1794 12.5622 20.6836 13.2337 22.2838C13.9052 23.8841 14.3209 24.8442 14.4487 25.1962L14.4806 25.7402L21.8143 7.47053L23.6383 7.47111C24.7865 19.4715 25.5203 26.6397 25.8076 29.0078ZM46.9508 29.0144L44.1988 29.0136C43.4634 26.9973 42.5042 24.469 41.3212 21.4607L32.7452 21.458L29.6068 29.009L28.6788 29.0087L37.7097 7.15552L37.9977 7.15561C38.2854 8.1157 38.5731 8.8838 38.7969 9.42786C39.8841 12.1482 41.2591 15.4446 42.8898 19.3811C44.5206 23.3177 45.8956 26.5501 46.9508 29.0144ZM33.0975 20.5301L40.9375 20.5325L37.0685 10.9313L37.0686 10.5473L33.0975 20.5301ZM64.4823 29.0199L61.6663 29.019L55.9414 19.2892C54.7573 19.3529 54.0213 19.3526 53.6694 19.2885L53.9254 19.0326C54.6294 19.0328 55.3335 18.9371 56.0695 18.7133C56.8056 18.5215 57.4777 18.2017 58.0858 17.7219C58.694 17.2421 59.1742 16.6343 59.5904 15.8984C59.9746 15.1625 60.1669 14.3306 60.1672 13.4026C60.1674 12.7306 60.0396 12.0585 59.7518 11.4184C59.464 10.7784 59.0162 10.2022 58.4404 9.72203C57.8645 9.24185 57.1286 8.88962 56.2007 8.63333C55.2728 8.40903 54.2488 8.31271 53.0648 8.40834L52.9047 8.60029L52.8983 29.0163L50.4663 29.0155C50.4663 28.9835 50.4664 28.8555 50.4664 28.6955C50.4665 28.5355 50.4674 25.3675 50.5014 19.1915C50.5353 13.0475 50.5045 9.14354 50.4731 7.47953L55.1771 7.48101C56.3611 7.48138 57.353 7.60969 58.1849 7.89795C58.9848 8.1862 59.6887 8.53842 60.2966 8.95461C60.8725 9.37079 61.3843 9.94695 61.8001 10.6831C62.2158 11.4192 62.4396 12.2513 62.4393 13.1793C62.4391 13.8513 62.3108 14.5872 62.0866 15.3872C61.8623 16.1871 61.4141 16.891 60.7419 17.5308C60.0697 18.2025 59.2695 18.6823 58.3095 18.97C59.1729 20.6343 61.2519 23.9949 64.4823 29.0199ZM82.0135 29.0254L79.1975 29.0245L73.4726 19.2947C72.2886 19.3584 71.5526 19.3581 71.2006 19.294L71.4567 19.0381C72.1607 19.0383 72.8647 18.9426 73.6008 18.7188C74.3368 18.527 75.0089 18.2072 75.6171 17.7274C76.2252 17.2476 76.7054 16.6398 77.1217 15.9039C77.5059 15.168 77.6982 14.3361 77.6985 13.4081C77.6987 12.7361 77.5709 12.064 77.2831 11.4239C76.9953 10.7839 76.5475 10.2077 75.9716 9.72753C75.3958 9.24735 74.6599 8.89512 73.7319 8.63883C72.804 8.41454 71.78 8.31822 70.596 8.41384L70.436 8.60579L70.4296 29.0218L67.9976 29.021C67.9976 28.989 67.9976 28.861 67.9977 28.701C67.9977 28.541 67.9987 25.373 68.0326 19.197C68.0666 13.0531 68.0358 9.14904 68.0043 7.48503L72.7083 7.48651C73.8923 7.48688 74.8843 7.61519 75.7162 7.90345C76.5161 8.1917 77.22 8.54392 77.8278 8.96011C78.4037 9.37629 78.9155 9.95246 79.3313 10.6886C79.7471 11.4247 79.9708 12.2568 79.9705 13.1848C79.9703 13.8568 79.8421 14.5927 79.6178 15.3927C79.3936 16.1926 78.9454 16.8965 78.2732 17.5363C77.6009 18.208 76.8008 18.6878 75.8407 18.9755C76.7042 20.6398 78.7831 24.0004 82.0135 29.0254ZM105.907 18.4089C105.907 20.0729 105.618 21.5768 105.042 22.9527C104.466 24.3285 103.665 25.5122 102.641 26.4399C101.617 27.3676 100.432 28.1032 99.0562 28.5828C97.68 29.0623 96.176 29.3179 94.608 29.3174C93.04 29.3169 91.536 29.0924 90.1282 28.612C88.7203 28.1315 87.5045 27.4592 86.4488 26.5308C85.3931 25.6025 84.5935 24.4822 84.0179 23.1381C83.4103 21.7939 83.1228 20.2898 83.1233 18.5938C83.1238 17.0898 83.4122 15.6499 83.9567 14.274C84.5011 12.8982 85.2695 11.6824 86.2938 10.6268C87.3182 9.57109 88.5344 8.77147 89.9746 8.16393C91.3828 7.55637 92.9189 7.26885 94.5829 7.26937C96.2149 7.26989 97.7508 7.55837 99.1906 8.13482C100.598 8.74326 101.814 9.54364 102.806 10.568C103.798 11.5923 104.565 12.7765 105.109 14.1207C105.652 15.4968 105.908 16.9049 105.907 18.4089ZM94.5442 28.4214C95.1202 28.4215 95.7923 28.3258 96.5283 28.166C97.2644 28.0062 98.0005 27.7184 98.7366 27.2387C99.4728 26.7909 100.209 26.1511 100.881 25.3514C101.553 24.5516 102.098 23.5597 102.546 22.3119C102.963 21.064 103.187 19.7841 103.187 18.4081C103.188 17.1601 103.028 15.912 102.677 14.6959C102.325 13.5118 101.813 12.4236 101.11 11.4314C100.374 10.4712 99.4781 9.70291 98.3583 9.12656C97.2385 8.55021 95.9906 8.26181 94.5506 8.26136C93.1106 8.26091 91.8625 8.54852 90.7423 9.15617C89.6221 9.76381 88.7259 10.5315 87.9895 11.5233C87.2532 12.5151 86.7409 13.6349 86.3885 14.8828C86.0361 16.1307 85.8437 17.3466 85.8433 18.5946C85.843 19.6186 86.0027 20.6747 86.2903 21.7948C86.578 22.9149 87.0577 23.875 87.6654 24.7392C88.2731 25.6034 88.9449 26.2756 89.6488 26.7878C90.3206 27.3 91.0885 27.6843 91.9524 27.9725C92.7843 28.2608 93.6482 28.4211 94.5442 28.4214ZM127.576 25.7437L127.256 27.7596C126.2 28.2073 124.951 28.5909 123.511 28.8785C122.039 29.198 120.759 29.3576 119.703 29.3573C118.679 29.3569 117.559 29.1966 116.343 28.8762C115.095 28.5878 113.976 28.0755 112.952 27.4031C111.928 26.7308 111.096 25.9626 110.425 25.0983C109.753 24.2341 109.241 23.274 108.889 22.1539C108.506 21.0337 108.314 19.8497 108.315 18.6017C108.315 17.0977 108.571 15.6578 109.084 14.2819C109.596 12.9061 110.333 11.6903 111.325 10.6346C112.317 9.57894 113.502 8.77931 114.878 8.17174C116.254 7.56417 117.79 7.27666 119.454 7.27718C121.022 7.27767 122.462 7.47012 123.774 7.88653C125.054 8.30294 126.302 8.94333 127.517 9.83971L126.749 11.8875C126.269 11.1513 125.725 10.5111 125.085 9.90294C124.445 9.32674 123.71 8.91051 122.846 8.65424C121.982 8.39797 121.022 8.26967 119.966 8.26934C118.526 8.26889 117.246 8.55648 116.126 9.16413C114.973 9.77177 114.013 10.5395 113.277 11.5312C112.54 12.523 111.964 13.6428 111.612 14.8907C111.227 16.1386 111.035 17.3545 111.035 18.6025C111.034 20.0745 111.258 21.4186 111.737 22.6668C112.217 23.9149 112.857 24.9391 113.72 25.8034C114.584 26.6677 115.576 27.34 116.76 27.7883C117.912 28.2687 119.159 28.4931 120.471 28.4935C121.591 28.4939 122.808 28.2382 124.184 27.6947C125.56 27.1511 126.68 26.5114 127.576 25.7437ZM153.095 18.4237C153.094 20.0877 152.806 21.5916 152.229 22.9675C151.653 24.3433 150.853 25.527 149.828 26.4547C148.804 27.3824 147.62 28.118 146.244 28.5976C144.868 29.0772 143.363 29.3327 141.795 29.3322C140.227 29.3317 138.724 29.1072 137.316 28.6268C135.908 28.1463 134.692 27.474 133.636 26.5456C132.581 25.6173 131.781 24.497 131.205 23.1529C130.598 21.8087 130.31 20.3046 130.311 18.6086C130.311 17.1046 130.6 15.6647 131.144 14.2888C131.689 12.913 132.457 11.6973 133.481 10.6416C134.506 9.5859 135.722 8.78628 137.162 8.17874C138.57 7.57118 140.106 7.28366 141.77 7.28418C143.402 7.28469 144.938 7.57318 146.378 8.14963C147.786 8.75807 149.002 9.55845 149.993 10.5828C150.985 11.6071 151.753 12.7913 152.296 14.1355C152.84 15.5117 153.095 16.9197 153.095 18.4237ZM141.732 28.4362C142.308 28.4364 142.98 28.3406 143.716 28.1808C144.452 28.021 145.188 27.7333 145.924 27.2535C146.66 26.8057 147.396 26.1659 148.069 25.3662C148.741 24.5664 149.285 23.5745 149.734 22.3267C150.15 21.0788 150.374 19.7989 150.375 18.4229C150.375 17.1749 150.216 15.9268 149.864 14.7107C149.512 13.5266 149.001 12.4384 148.297 11.4462C147.561 10.486 146.666 9.71772 145.546 9.14137C144.426 8.56501 143.178 8.27662 141.738 8.27617C140.298 8.27572 139.05 8.56333 137.93 9.17098C136.81 9.77862 135.913 10.5463 135.177 11.5381C134.441 12.5299 133.928 13.6497 133.576 14.8976C133.224 16.1455 133.031 17.3614 133.031 18.6094C133.03 19.6334 133.19 20.6895 133.478 21.8096C133.765 22.9297 134.245 23.8898 134.853 24.754C135.461 25.6182 136.132 26.2904 136.836 26.8026C137.508 27.3148 138.276 27.6991 139.14 27.9874C139.972 28.2756 140.836 28.4359 141.732 28.4362ZM155.499 27.0965L156.204 25.0487C156.876 26.2969 157.675 27.1612 158.603 27.6095C159.531 28.0898 160.555 28.3141 161.675 28.3144C162.283 28.3146 162.923 28.1868 163.595 27.963C164.267 27.7392 164.811 27.4194 165.227 26.9715C165.644 26.5557 165.932 26.1078 166.092 25.6278C166.252 25.1479 166.316 24.6999 166.316 24.2839C166.317 23.3879 166.125 22.6198 165.709 22.0117C165.293 21.4036 164.781 20.8594 164.173 20.4432C163.534 20.027 162.51 19.4507 161.07 18.7142C159.63 18.0098 158.574 17.3695 157.967 16.7613C157.359 16.1531 156.911 15.5449 156.623 14.8728C156.335 14.2008 156.208 13.4647 156.208 12.6007C156.208 11.5447 156.465 10.6488 157.009 9.88096C157.521 9.11312 158.225 8.47335 159.153 7.99364C160.082 7.51393 161.074 7.29024 162.162 7.29058C163.026 7.29085 163.954 7.41914 164.881 7.70743C165.809 7.99572 166.513 8.37995 167.025 8.86011L166.225 10.6199C165.809 9.88372 165.297 9.30756 164.657 8.89136C164.017 8.47516 163.153 8.25089 162.065 8.25055C160.977 8.25021 160.049 8.53792 159.249 9.11367C158.449 9.68942 158.065 10.5213 158.064 11.6093C158.064 12.5053 158.256 13.2734 158.672 13.8815C159.087 14.4896 159.599 15.0018 160.271 15.418C160.911 15.8342 161.967 16.4105 163.407 17.083C164.846 17.7554 165.902 18.3958 166.51 18.9719C167.118 19.5801 167.598 20.1883 167.885 20.8604C168.173 21.5325 168.301 22.2685 168.301 23.1325C168.3 23.8365 168.172 24.5405 167.948 25.2444C167.724 25.9803 167.308 26.6202 166.763 27.228C166.219 27.8359 165.515 28.3156 164.651 28.6994C163.787 29.1151 162.827 29.3068 161.739 29.3064C159.307 29.3057 157.227 28.569 155.499 27.0965Z" fill="#1A1A1A"/>
</svg>
